<svg id="Layer_1" data-name="Layer 1" xmlns="http://www.w3.org/2000/svg" viewBox="0 0 385.47 392"><defs><style>.cls-1{fill:#fdfdfd;}.cls-2{fill:#264159;}.cls-3{fill:#254159;}.cls-4{fill:#59c5cc;}.cls-5{fill:#fad14a;}.cls-6{fill:#25aab2;}.cls-7{fill:#f9a812;}.cls-8{fill:#db7441;}.cls-9{fill:#fda771;}.cls-10{fill:#fba671;}.cls-11{fill:#fba771;}.cls-12{fill:#fba770;}.cls-13{fill:#faa771;}.cls-14{fill:#a95326;}.cls-15{fill:#331205;}.cls-16{fill:#b65117;}.cls-17{fill:#bd652f;}.cls-18{fill:#0b4362;}.cls-19{fill:#b44c0e;}.cls-20{fill:#e88753;}</style></defs><path class="cls-1" d="M225.47,461V69H610.93V461ZM596,236.52l0-.11a151.65,151.65,0,0,0-19.13-56.53,46.31,46.31,0,0,0-2.35-4.86c-37.16-58.88-89.17-91-160.18-89-4.46.13-9-.81-13.4-.35-44.46,4.67-82.4,23-113.4,55.23-11.2,11.66-21,24.42-28,39.21-10.07,17.15-16.06,35.71-19.08,55.29a161.85,161.85,0,0,0-.63,55.58c.43,2.86.67,5.77,1.32,8.58C258.72,374.81,304.87,422.86,380,440.87c69.89,16.76,143.21-12.53,185.28-71.58,16.9-23.73,27.69-50,31.32-79,3-17.14,2.5-34.28.08-51.43Z" transform="translate(-225.47 -69)"/><path class="cls-2" d="M596.55,290.29c-3.63,29-14.42,55.27-31.32,79-42.07,59-115.39,88.34-185.28,71.58-75.08-18-121.23-66.06-138.82-141.35-.65-2.81-.89-5.72-1.32-8.58,2.18.83,4.44,1.48,6.52,2.5,11,5.45,22,10.84,32.91,16.59,3.46,1.83,5.37,1.52,7.4-1.84,4.19-6.93,8.68-13.67,13.05-20.49l5,2.44,13.08,9.75c-5.72,9.41-5.07,13.36,3,18.18,5.69,3.4,7.8,2.87,14.84-3.74h.07c.41,1.26.82,2.52,1.22,3.79-4.24,7.43-3.71,12,1.86,16.05,5.77,4.19,11,3.64,16.14-1.7l3.5,2.24c-2,7.86-.65,11.89,5.28,15.48,5.73,3.47,9.11,2.89,15.22-2.59l3.17,1.6c.11,7.87,2.55,11.07,10,13.93,4.69,1.79,8,.1,10.73-3.52,2.12,1,4.28,2,6.36,3,6.62,3.43,11.72-.53,17.18-3.28,4.59-2.31,3.79-6.08,2.78-10.22,7.51,4.51,10.26,3.94,16.9-1.69,5.59-4.74,2.27-9.06,0-14,5.5,3.74,10.28,8.32,17.49,3.3,8-5.6,8.48-11.78,2.67-19.57a29.63,29.63,0,0,1,6.48,4.16c4,3.46,7.72,3,10.66-1s5.23-8.47,7.81-12.73c9.47-6.26,18.88-12.63,28.46-18.72,2.5-1.59,5.53-2.34,8.32-3.48.86.81,1.77,1.58,2.59,2.44q11.31,11.9,22.6,23.81Z" transform="translate(-225.47 -69)"/><path class="cls-3" d="M259.52,180.07c6.92-14.79,16.76-27.55,28-39.21,31-32.26,68.94-50.56,113.4-55.23,4.41-.46,8.94.48,13.4.35,71-2,123,30.16,160.18,89a46.31,46.31,0,0,1,2.35,4.86c-21.45,8.57-42.89,17.18-64.38,25.67-3.83,1.52-3.34,3.54-1.33,6.11-.12.4-.23.81-.34,1.21-2.5,4.13-5.55,3.84-9.45,1.76C483.26,205,465.39,195,445.46,189.46c-6.86-1.91-12.77-1.16-18.58,2.69-2.7,1.79-5.64,3.21-8.48,4.79-20.14,3.09-40.8,4.45-59.45,13.44-9.92,4.79-19.06,6.84-29,1.36l-2.37-1.13c-.69-1.44-1-3.74-2.14-4.18C303.5,197.51,281.5,188.81,259.52,180.07Z" transform="translate(-225.47 -69)"/><path class="cls-4" d="M259.52,180.07c22,8.74,44,17.44,65.89,26.36,1.1.44,1.45,2.74,2.14,4.17-.29.85-.59,1.69-.87,2.54l-17,52.37a11,11,0,0,0-2.47-2c-16.26-6.59-32.59-13-48.81-19.7-6.11-2.52-12-5.61-17.95-8.44C243.46,215.78,249.45,197.22,259.52,180.07Z" transform="translate(-225.47 -69)"/><path class="cls-5" d="M511.1,211.66c-2-2.57-2.5-4.59,1.33-6.11,21.49-8.49,42.93-17.1,64.38-25.67a151.65,151.65,0,0,1,19.13,56.53l-54.65,22.08c-4.72-10.07-8.81-20.49-14.37-30.08C523.11,221.83,519.32,214.43,511.1,211.66Z" transform="translate(-225.47 -69)"/><path class="cls-6" d="M240.44,235.36c6,2.83,11.84,5.92,17.95,8.44,16.22,6.68,32.55,13.11,48.81,19.7a11,11,0,0,1,2.47,2l-10,22.19c-4.37,6.82-8.86,13.56-13.05,20.49-2,3.36-3.94,3.67-7.4,1.84-10.86-5.75-21.9-11.14-32.91-16.59-2.08-1-4.34-1.67-6.52-2.5A161.85,161.85,0,0,1,240.44,235.36Zm42.74,51.81c-.56-3.45-2.49-6-6.68-5.91-3.81.06-5.62,2.36-5.38,6,.25,3.8,2.54,5.93,6.35,6S283.11,291.35,283.18,287.17Z" transform="translate(-225.47 -69)"/><path class="cls-7" d="M541.29,258.49l54.65-22.08,0,.11c.22.78.45,1.56.67,2.34,2.42,17.15,2.91,34.29-.08,51.43l-43.42,21.35-6.42-32.57Q544,268.78,541.29,258.49Z" transform="translate(-225.47 -69)"/><path class="cls-5" d="M596.63,238.86c-.22-.78-.45-1.56-.67-2.34C596.19,237.3,596.41,238.08,596.63,238.86Z" transform="translate(-225.47 -69)"/><path class="cls-8" d="M329.92,211.74c10,5.48,19.11,3.43,29-1.36,18.65-9,39.31-10.35,59.45-13.44a42.23,42.23,0,0,1-5,3.92c-7.51,4.28-15,8.51-22.69,12.55-5,2.64-8.71,6-9.95,11.88-1.82,8.59-4.29,17.05-6.07,25.65-.86,4.14-.79,8.47-1.14,12.71,2,4.81,6.25,3.77,9.83,3.23,9.9-1.51,15.94-7.86,19.59-16.79,1.62-4,2-9.46,4.87-11.74,5.22-4.11,11.93-6.32,18-9.32h0l26.23,18.55a278.56,278.56,0,0,1,39.07,60c-2.58,4.26-4.91,8.7-7.81,12.73s-6.68,4.49-10.66,1a29.63,29.63,0,0,0-6.48-4.16c5.81,7.79,5.38,14-2.67,19.57-7.21,5-12,.44-17.49-3.3,2.26,4.94,5.58,9.26,0,14-6.64,5.63-9.39,6.2-16.9,1.69,1,4.14,1.81,7.91-2.78,10.22-5.46,2.75-10.56,6.71-17.18,3.28-2.08-1.08-4.24-2-6.36-3q1.81-3.27,3.61-6.56c4.14-3.22,6.55-12.64,4.21-16.89-.35-.64-1.37-.92-2.09-1.36-4.56-6.39-10.14-7.42-15.08-1.84-4.35,4.93-7.64,10.79-11.4,16.25l-3.17-1.61,6.54-11.69c1.82-5.22,3.86-10.39,5.28-15.72.25-1-2-2.61-3.13-3.94-5.42-6.37-12.18-6.2-17,.61-4.17,5.87-8.13,11.89-12.17,17.85l-3.5-2.24,4.7-7.72,1.95-2.09,0,0c4.79-3.05,8.69-10.89,7.59-15.84-.23-1-1.67-1.76-2.54-2.63-5.52-6-10.7-6.43-16.75-.63-4.66,4.47-8.63,9.65-12.92,14.52-.4-1.26-.81-2.52-1.22-3.78l1.92-2.56,0,0,1.13-1.13,0,0c2.17-4,4.72-7.89,6.28-12.13.45-1.22-1.95-3.48-3-5.27l.07.06-1.55-2.25c-5.36-3.65-10.21-2.23-14.73,1.6-2.7,2.3-5.27,4.77-7.9,7.16l-13.08-9.75c.94-1,2.22-1.91,2.77-3.12,3.23-7,6.63-14.06,9.34-21.32A242.81,242.81,0,0,0,329.92,211.74Zm94.79,131.69.48.43-.42-.49-3.28-3.27-.47-.43.42.49ZM418,335.7l-.25-.33-.31.27.42.44Z" transform="translate(-225.47 -69)"/><path class="cls-9" d="M373.55,263.65c.35-4.24.28-8.57,1.14-12.71,1.78-8.6,4.25-17.06,6.07-25.65,1.24-5.89,4.95-9.24,9.95-11.88,7.64-4,15.18-8.27,22.69-12.55a42.23,42.23,0,0,0,5-3.92c2.84-1.58,5.78-3,8.48-4.79,5.81-3.85,11.72-4.6,18.58-2.69,19.93,5.55,37.8,15.55,55.85,25.17,3.9,2.08,6.95,2.37,9.45-1.76,5.53,8.87,12.29,17.22,16.3,26.73,5.57,13.22,9.09,27.31,13.49,41l-12.61,4.76c-2.79,1.14-5.82,1.89-8.32,3.48-9.58,6.09-19,12.46-28.46,18.72a278.56,278.56,0,0,0-39.07-60c-6.84-8.87-16.74-13.42-26.23-18.55h0c-1.69-3.36-3.91-3.28-7.08-1.73-8.48,4.15-14.65,9.27-17.54,19.36C397.4,260.1,387,265.37,373.55,263.65Z" transform="translate(-225.47 -69)"/><path class="cls-10" d="M358.4,334.71c4-6,8-12,12.17-17.85,4.84-6.81,11.6-7,17-.61.14,3.18.66,6.4.3,9.52-.4,3.43-1.6,6.77-2.45,10.14L378.9,347.6c-6.11,5.48-9.49,6.06-15.22,2.59C357.75,346.6,356.38,342.57,358.4,334.71Z" transform="translate(-225.47 -69)"/><path class="cls-11" d="M359.6,324.75l-4.7,7.72c-5.16,5.34-10.37,5.89-16.14,1.7-5.57-4.05-6.1-8.62-1.86-16.05,4.29-4.88,8.26-10.06,12.92-14.53,6.05-5.8,11.23-5.35,16.75.63.15.87.64,1.86.4,2.61-1.74,5.31-3.62,10.58-5.45,15.86l0,0Z" transform="translate(-225.47 -69)"/><path class="cls-12" d="M406.43,353.05q-1.8,3.29-3.61,6.56c-2.77,3.62-6,5.31-10.73,3.52-7.47-2.86-9.91-6.06-10-13.93,3.76-5.45,7.05-11.31,11.4-16.24,4.94-5.58,10.52-4.55,15.08,1.84C410.7,341.21,408.26,347.1,406.43,353.05Z" transform="translate(-225.47 -69)"/><path class="cls-13" d="M317.79,299.89c2.63-2.39,5.2-4.86,7.9-7.16,4.52-3.83,9.37-5.25,14.74-1.6l1.54,2.25-.07-.06c-.37,3.81-.58,7.64-1.19,11.41a36.85,36.85,0,0,1-2,6l0,0-1.12,1.13,0,0-2,2.56c-7,6.61-9.15,7.14-14.84,3.74C312.72,313.25,312.07,309.3,317.79,299.89Z" transform="translate(-225.47 -69)"/><path class="cls-14" d="M329.92,211.74a242.81,242.81,0,0,1-13.1,54C314.11,273,310.71,280,307.48,287c-.55,1.21-1.83,2.09-2.77,3.12l-5-2.44,10-22.19,17-52.37c.28-.85.58-1.69.87-2.54C328.34,211,329.13,211.36,329.92,211.74Z" transform="translate(-225.47 -69)"/><path class="cls-15" d="M527.94,285.39l12.61-4.77,6.16-1.55,6.42,32.57q-11.29-11.91-22.6-23.81C529.71,287,528.8,286.2,527.94,285.39Z" transform="translate(-225.47 -69)"/><path class="cls-16" d="M335.61,314.33l2-2.56-1.92,2.56Z" transform="translate(-225.47 -69)"/><path class="cls-17" d="M546.71,279.07l-6.16,1.55c-4.4-13.71-7.92-27.8-13.49-41-4-9.51-10.77-17.86-16.3-26.73.11-.4.22-.81.34-1.21,8.22,2.77,12,10.17,15.82,16.75,5.56,9.59,9.65,20,14.37,30.08Q544,268.78,546.71,279.07Z" transform="translate(-225.47 -69)"/><path class="cls-18" d="M283.18,287.17c-.07,4.18-1.94,6.24-5.71,6.14s-6.1-2.24-6.35-6c-.24-3.65,1.57-5.95,5.38-6C280.69,281.18,282.62,283.72,283.18,287.17Z" transform="translate(-225.47 -69)"/><path class="cls-19" d="M373.55,263.65c13.45,1.72,23.85-3.55,27.69-17,2.89-10.09,9.06-15.21,17.54-19.36,3.17-1.55,5.39-1.63,7.08,1.73-6.09,3-12.8,5.21-18,9.32-2.91,2.28-3.25,7.75-4.87,11.74-3.65,8.93-9.69,15.28-19.59,16.79C379.8,267.42,375.58,268.46,373.55,263.65Z" transform="translate(-225.47 -69)"/><path class="cls-16" d="M425.86,229c9.49,5.13,19.39,9.68,26.23,18.55Z" transform="translate(-225.47 -69)"/><path class="cls-16" d="M385.44,335.91c.85-3.37,2.05-6.71,2.45-10.14.36-3.12-.16-6.34-.3-9.52,1.11,1.33,3.38,3,3.13,3.94C389.3,325.52,387.26,330.69,385.44,335.91Z" transform="translate(-225.47 -69)"/><path class="cls-19" d="M361.52,322.69c1.83-5.28,3.71-10.55,5.45-15.86.24-.75-.25-1.74-.4-2.61.87.87,2.31,1.62,2.54,2.63C370.21,311.8,366.31,319.64,361.52,322.69Z" transform="translate(-225.47 -69)"/><path class="cls-16" d="M338.66,310.72a36.85,36.85,0,0,0,2-6c.61-3.77.82-7.6,1.19-11.41,1.09,1.79,3.49,4.05,3,5.27C343.38,302.83,340.83,306.71,338.66,310.72Z" transform="translate(-225.47 -69)"/><path class="cls-16" d="M406.43,353.05c1.83-5.95,4.27-11.84,2.12-18.25.72.44,1.74.72,2.09,1.36C413,340.41,410.57,349.83,406.43,353.05Z" transform="translate(-225.47 -69)"/><path class="cls-20" d="M421.49,340.1l3.28,3.27-.06.06-3.27-3.27Z" transform="translate(-225.47 -69)"/><path class="cls-19" d="M359.6,324.75l1.95-2.09Z" transform="translate(-225.47 -69)"/><path class="cls-16" d="M342,293.38l-1.54-2.25Z" transform="translate(-225.47 -69)"/><path class="cls-20" d="M418,335.7l-.14.38-.42-.44.31-.27Z" transform="translate(-225.47 -69)"/><path class="cls-16" d="M337.57,311.81l1.12-1.13Z" transform="translate(-225.47 -69)"/><path class="cls-20" d="M421.44,340.16l-.42-.49c.15.15.31.29.47.43Z" transform="translate(-225.47 -69)"/><path class="cls-20" d="M424.77,343.37l.42.49-.48-.43Z" transform="translate(-225.47 -69)"/></svg>